<svg width="173" height="96" viewBox="0 0 173 96" fill="none" xmlns="http://www.w3.org/2000/svg">
<g clip-path="url(#clip0_787_156)">
<path d="M61.8186 44.091L44.0913 45.1819C43.7883 43.6668 43.1368 42.3031 42.1368 41.091C41.1368 39.8486 39.8186 38.8637 38.1822 38.1365C36.5762 37.3789 34.6519 37.0001 32.4095 37.0001C29.4095 37.0001 26.8792 37.6365 24.8186 38.9092C22.758 40.1516 21.7277 41.8183 21.7277 43.9092C21.7277 45.5759 22.3943 46.9849 23.7277 48.1365C25.061 49.288 27.3489 50.2122 30.5913 50.9092L43.2277 53.4546C50.0156 54.8486 55.0762 57.091 58.4095 60.1819C61.7428 63.2728 63.4095 67.3334 63.4095 72.3637C63.4095 76.9395 62.061 80.9546 59.364 84.4092C56.6974 87.8637 53.0307 90.5607 48.364 92.5001C43.7277 94.4092 38.3792 95.3637 32.3186 95.3637C23.0762 95.3637 15.7125 93.4395 10.2277 89.591C4.77308 85.7122 1.57611 80.4395 0.636719 73.7728L19.6822 72.7728C20.258 75.591 21.6519 77.7425 23.864 79.2274C26.0762 80.6819 28.9095 81.4092 32.364 81.4092C35.758 81.4092 38.4853 80.7577 40.5459 79.4546C42.6368 78.1213 43.6974 76.4092 43.7277 74.3183C43.6974 72.5607 42.9549 71.1213 41.5004 70.0001C40.0459 68.8486 37.8034 67.9698 34.7731 67.3637L22.6822 64.9546C15.864 63.591 10.7883 61.2274 7.4549 57.8637C4.15187 54.5001 2.50035 50.2122 2.50035 45.0001C2.50035 40.5152 3.71247 36.6516 6.13671 33.4092C8.59126 30.1668 12.0307 27.6668 16.4549 25.9092C20.9095 24.1516 26.1216 23.2728 32.0913 23.2728C40.9095 23.2728 47.8489 25.1365 52.9095 28.8637C58.0004 32.591 60.9701 37.6668 61.8186 44.091ZM93.1481 73.9092L93.1936 50.6819H96.0117L118.375 24.1819H140.602L110.557 59.2728H105.966L93.1481 73.9092ZM75.6027 94.0001V0.90918H94.9662V94.0001H75.6027ZM119.239 94.0001L98.6936 63.591L111.602 49.9092L141.92 94.0001H119.239Z" fill="black"/>
<path d="M161.421 95.1814C158.421 95.1814 155.846 94.1208 153.694 91.9996C151.573 89.8481 150.512 87.2723 150.512 84.2723C150.512 81.3026 151.573 78.7572 153.694 76.636C155.846 74.5148 158.421 73.4541 161.421 73.4541C164.331 73.4541 166.876 74.5148 169.058 76.636C171.24 78.7572 172.331 81.3026 172.331 84.2723C172.331 86.2723 171.815 88.1057 170.785 89.7723C169.785 91.4087 168.467 92.7269 166.831 93.7269C165.194 94.6966 163.391 95.1814 161.421 95.1814Z" fill="#D87C0B"/>
</g>
<defs>
<clipPath id="clip0_787_156">
<rect width="173" height="96" fill="white"/>
</clipPath>
</defs>
</svg>
