<svg width="173" height="96" viewBox="0 0 173 96" fill="none" xmlns="http://www.w3.org/2000/svg">
<path d="M61.8182 44.0909L44.0909 45.1818C43.7879 43.6667 43.1364 42.303 42.1364 41.0909C41.1364 39.8485 39.8182 38.8636 38.1818 38.1364C36.5758 37.3788 34.6515 37 32.4091 37C29.4091 37 26.8788 37.6364 24.8182 38.9091C22.7576 40.1515 21.7273 41.8182 21.7273 43.9091C21.7273 45.5758 22.3939 46.9848 23.7273 48.1364C25.0606 49.2879 27.3485 50.2121 30.5909 50.9091L43.2273 53.4545C50.0152 54.8485 55.0758 57.0909 58.4091 60.1818C61.7424 63.2727 63.4091 67.3333 63.4091 72.3636C63.4091 76.9394 62.0606 80.9545 59.3636 84.4091C56.697 87.8636 53.0303 90.5606 48.3636 92.5C43.7273 94.4091 38.3788 95.3636 32.3182 95.3636C23.0758 95.3636 15.7121 93.4394 10.2273 89.5909C4.77273 85.7121 1.57576 80.4394 0.636364 73.7727L19.6818 72.7727C20.2576 75.5909 21.6515 77.7424 23.8636 79.2273C26.0758 80.6818 28.9091 81.4091 32.3636 81.4091C35.7576 81.4091 38.4849 80.7576 40.5455 79.4545C42.6364 78.1212 43.697 76.4091 43.7273 74.3182C43.697 72.5606 42.9545 71.1212 41.5 70C40.0455 68.8485 37.803 67.9697 34.7727 67.3636L22.6818 64.9545C15.8636 63.5909 10.7879 61.2273 7.45455 57.8636C4.15152 54.5 2.5 50.2121 2.5 45C2.5 40.5151 3.71212 36.6515 6.13636 33.4091C8.59091 30.1667 12.0303 27.6667 16.4545 25.9091C20.9091 24.1515 26.1212 23.2727 32.0909 23.2727C40.9091 23.2727 47.8485 25.1364 52.9091 28.8636C58 32.5909 60.9697 37.6667 61.8182 44.0909ZM93.1477 73.9091L93.1932 50.6818H96.0114L118.375 24.1818H140.602L110.557 59.2727H105.966L93.1477 73.9091ZM75.6023 94V0.909088H94.9659V94H75.6023ZM119.239 94L98.6932 63.5909L111.602 49.9091L141.92 94H119.239Z" fill="white"/>
<path d="M161.42 95.1818C158.42 95.1818 155.845 94.1212 153.693 92C151.572 89.8485 150.511 87.2727 150.511 84.2727C150.511 81.303 151.572 78.7576 153.693 76.6364C155.845 74.5152 158.42 73.4545 161.42 73.4545C164.33 73.4545 166.875 74.5152 169.057 76.6364C171.239 78.7576 172.33 81.303 172.33 84.2727C172.33 86.2727 171.814 88.1061 170.784 89.7727C169.784 91.4091 168.466 92.7273 166.83 93.7273C165.193 94.697 163.39 95.1818 161.42 95.1818Z" fill="#D87C0B"/>
</svg>
