<svg width="339" height="293" viewBox="0 0 339 293" fill="none" xmlns="http://www.w3.org/2000/svg">
<path d="M130.077 142.263L103.886 143.875C103.439 141.637 102.476 139.622 100.999 137.831C99.5213 135.996 97.5738 134.54 95.1562 133.466C92.7833 132.347 89.9404 131.787 86.6274 131.787C82.1952 131.787 78.4569 132.727 75.4125 134.608C72.3681 136.443 70.8459 138.906 70.8459 141.995C70.8459 144.457 71.8309 146.539 73.8007 148.24C75.7706 149.941 79.1508 151.307 83.9412 152.337L102.61 156.097C112.639 158.157 120.116 161.47 125.04 166.036C129.965 170.603 132.427 176.602 132.427 184.034C132.427 190.794 130.435 196.726 126.451 201.83C122.511 206.934 117.094 210.919 110.199 213.784C103.349 216.604 95.4472 218.015 86.4931 218.015C72.8382 218.015 61.959 215.172 53.8556 209.486C45.7969 203.755 41.0737 195.965 39.6858 186.116L67.8239 184.638C68.6746 188.802 70.734 191.981 74.0022 194.174C77.2704 196.323 81.4565 197.398 86.5603 197.398C91.5746 197.398 95.6039 196.435 98.6483 194.51C101.737 192.54 103.304 190.011 103.349 186.922C103.304 184.325 102.207 182.198 100.059 180.542C97.9095 178.841 94.5965 177.542 90.1195 176.647L72.2562 173.088C62.1829 171.073 54.6838 167.581 49.7591 162.611C44.8791 157.642 42.4392 151.307 42.4392 143.606C42.4392 136.98 44.23 131.272 47.8116 126.482C51.438 121.691 56.5194 117.998 63.0559 115.401C69.6371 112.804 77.3376 111.506 86.1574 111.506C99.1855 111.506 109.438 114.26 116.915 119.766C124.436 125.273 128.823 132.772 130.077 142.263ZM176.364 186.317L176.431 152.001H180.595L213.635 112.849H246.474L202.084 164.693H195.302L176.364 186.317ZM150.442 216V78.4657H179.05V216H150.442ZM214.911 216L184.557 171.073L203.629 150.859L248.422 216H214.911Z" fill="white"/>
<path d="M277.231 217.746C272.799 217.746 268.994 216.179 265.815 213.045C262.681 209.866 261.114 206.061 261.114 201.629C261.114 197.241 262.681 193.481 265.815 190.347C268.994 187.213 272.799 185.646 277.231 185.646C281.529 185.646 285.29 187.213 288.513 190.347C291.737 193.481 293.349 197.241 293.349 201.629C293.349 204.584 292.588 207.292 291.065 209.755C289.588 212.172 287.64 214.12 285.223 215.597C282.805 217.03 280.141 217.746 277.231 217.746Z" fill="#D87C0B"/>
</svg>
