<svg width="339" height="293" viewBox="0 0 339 293" fill="none" xmlns="http://www.w3.org/2000/svg">
<path d="M130.077 142.263L103.886 143.875C103.439 141.637 102.476 139.622 100.999 137.831C99.521 135.996 97.5735 134.54 95.1559 133.466C92.783 132.347 89.9402 131.787 86.6272 131.787C82.195 131.787 78.4566 132.727 75.4122 134.608C72.3678 136.443 70.8456 138.906 70.8456 141.995C70.8456 144.457 71.8306 146.539 73.8004 148.24C75.7703 149.941 79.1505 151.307 83.9409 152.337L102.61 156.097C112.639 158.157 120.116 161.47 125.04 166.036C129.965 170.603 132.427 176.602 132.427 184.034C132.427 190.794 130.435 196.726 126.451 201.83C122.511 206.934 117.094 210.919 110.199 213.784C103.349 216.604 95.447 218.015 86.4929 218.015C72.838 218.015 61.9587 215.172 53.8553 209.486C45.7966 203.755 41.0734 195.965 39.6855 186.116L67.8236 184.638C68.6743 188.802 70.7337 191.981 74.0019 194.174C77.2701 196.323 81.4563 197.398 86.5601 197.398C91.5744 197.398 95.6036 196.435 98.648 194.51C101.737 192.54 103.304 190.011 103.349 186.922C103.304 184.325 102.207 182.198 100.059 180.542C97.9092 178.841 94.5962 177.542 90.1192 176.647L72.256 173.088C62.1827 171.073 54.6835 167.581 49.7589 162.611C44.8788 157.642 42.4389 151.307 42.4389 143.606C42.4389 136.98 44.2297 131.272 47.8113 126.482C51.4377 121.691 56.5191 117.998 63.0556 115.401C69.6368 112.804 77.3373 111.506 86.1572 111.506C99.1853 111.506 109.438 114.26 116.915 119.766C124.436 125.273 128.823 132.772 130.077 142.263ZM176.364 186.317L176.431 152.001H180.595L213.635 112.849H246.474L202.084 164.693H195.302L176.364 186.317ZM150.442 216V78.4658H179.05V216H150.442ZM214.911 216L184.557 171.073L203.629 150.859L248.422 216H214.911Z" fill="black"/>
<path d="M277.23 217.746C272.798 217.746 268.993 216.179 265.814 213.045C262.68 209.866 261.113 206.061 261.113 201.629C261.113 197.241 262.68 193.481 265.814 190.347C268.993 187.213 272.798 185.646 277.23 185.646C281.528 185.646 285.289 187.213 288.512 190.347C291.736 193.481 293.348 197.241 293.348 201.629C293.348 204.584 292.587 207.292 291.064 209.755C289.587 212.172 287.639 214.12 285.222 215.597C282.804 217.03 280.14 217.746 277.23 217.746Z" fill="#D87C0B"/>
</svg>
